<svg width="240" height="240" viewBox="0 0 240 240" xmlns="http://www.w3.org/2000/svg">
  <defs>
    <linearGradient id="ruler" x1="0" y1="0" x2="1" y2="1">
      <stop offset="0" stop-color="#fff1b8"/>
      <stop offset="1" stop-color="#f0c96b"/>
    </linearGradient>
  </defs>
  <ellipse cx="120" cy="200" rx="60" ry="10" fill="#cda8b3" opacity="0.35"/>
  <rect x="30" y="112" width="180" height="24" rx="12" fill="url(#ruler)"/>
  <rect x="40" y="116" width="2" height="16" fill="#d3a84f"/>
  <rect x="52" y="118" width="2" height="12" fill="#d3a84f"/>
  <rect x="64" y="116" width="2" height="16" fill="#d3a84f"/>
  <rect x="76" y="118" width="2" height="12" fill="#d3a84f"/>
  <rect x="88" y="116" width="2" height="16" fill="#d3a84f"/>
  <rect x="100" y="118" width="2" height="12" fill="#d3a84f"/>
  <rect x="112" y="116" width="2" height="16" fill="#d3a84f"/>
  <rect x="124" y="118" width="2" height="12" fill="#d3a84f"/>
  <rect x="136" y="116" width="2" height="16" fill="#d3a84f"/>
  <rect x="148" y="118" width="2" height="12" fill="#d3a84f"/>
  <rect x="160" y="116" width="2" height="16" fill="#d3a84f"/>
  <rect x="172" y="118" width="2" height="12" fill="#d3a84f"/>
  <rect x="184" y="116" width="2" height="16" fill="#d3a84f"/>
</svg>
